# xmcd
#
# Track frame offsets:
#	150
#	34254
#	60857
#	83912
#	119749
#	154086
#	178577
#	208135
#	246768
#	276611
#	293208
#	315395
#	337200
#
# Disc length: 4746 seconds
#
# Revision: 0
# Processed by: cddbd v1.5.2PL0 Copyright (c) Steve Scherf et al.
# Submitted via: EasyCDDAExtractor 15.2.5.1
#
DISCID=c712880d
DTITLE=Various Artist - Club Miami Vol.1 CD1
DYEAR=1900
DGENRE=House
TTITLE0=Housecrushers - Touch me
TTITLE1=Dogthoot - Can't cool down
TTITLE2=DJ Antoine - Eskalation
TTITLE3=P.I.P. - Still in Love
TTITLE4=Twisted Society - Killer
TTITLE5=Shibuku - Crazy Situation
TTITLE6=Carnival - Not over yet
TTITLE7=Sharam - PATT
TTITLE8=Hernandez vs. DJ Tyo - Let you down (Sunloverz Dub Mix)
TTITLE9=Bionik Phunk - White Lines
TTITLE10=Stereo Mutants - Amazing
TTITLE11=Madmud - Discustingly Fabulous
TTITLE12=Harley and Muscle - Deeper Love
EXTD=
EXTT0=
EXTT1=
EXTT2=
EXTT3=
EXTT4=
EXTT5=
EXTT6=
EXTT7=
EXTT8=
EXTT9=
EXTT10=
EXTT11=
EXTT12=
PLAYORDER=
